<?xml version="1.0" encoding="UTF-8"?><svg id="Layer_1" xmlns="http://www.w3.org/2000/svg" xmlns:xlink="http://www.w3.org/1999/xlink" viewBox="0 0 1723.67 1141.33"><defs><style>.cls-1{fill:none;}.cls-2{fill:url(#linear-gradient);}</style><linearGradient id="linear-gradient" x1="-133.56" y1="-70.86" x2="1784.18" y2="1036.35" gradientUnits="userSpaceOnUse"><stop offset=".03" stop-color="#c48cf8"/><stop offset="1" stop-color="#8cf893"/></linearGradient></defs><path class="cls-2" d="m1847.54,4.56c-40.69,87.69-150.85,179.24-202.4,207.63-77.74,80.7-246.41,229.33-364.93,310.98-57.55,39.65-122.73,69.75-191,87.64-35.05,9.19-71.07,15.12-107.48,17.65-31.36,2.17-79.06,8.58-109.39-2.61-23.29-8.59-31.84-61.66-42.86-82.08-12.96-24.01-27.29-47.38-43.55-69.42-27.09-36.74-59.67-70.06-98.67-94.32-74.79-46.5-164.35-51.38-246.98-34.78-81.69,16.41-191.35-44.7-264.14-83.72C108.92,225.52,14.19,181.86-40,127.73c-.51-.51-1.01-1.02-1.52-1.53-91.36,20.14-168.53,49.73-222.94,94.88-197.57,163.9-100.45,527.64,113.14,747.61,17.18,17.55,35.34,34.17,54.32,49.92,94.57-131.68,228.3-236.36,402.93-298.28,122.13-43.31,252.67-57.66,381.66-49.37,64.38,4.14,128.35,13.73,191.36,27.52,31.81,6.96,62.63,16.83,93.73,26.34,24.93,7.63,51.81,27.18,78.79,19.01,9.67-2.93,17.84-9.31,26.19-14.99,60.03-40.81,131.08-37.85,199.96-29.36,94.2,11.6,185.19,35.97,277.78,55.2,63.24,13.14,118.91,42.14,170.89,77.64,162.71-84.71,306.05-180.83,354.36-307.88,66.41-175.89-45.4-410.22-233.11-519.88Z"/><rect class="cls-1" x="-4" width="1727.67" height="1145.33"/></svg>