<?xml version="1.0" encoding="UTF-8"?><svg id="Layer_1" xmlns="http://www.w3.org/2000/svg" xmlns:xlink="http://www.w3.org/1999/xlink" viewBox="0 0 1628.61 309.73"><defs><style>.cls-1{fill:#fff;}.cls-2{fill:url(#linear-gradient);opacity:.4;}.cls-3{fill:#c389f1;}</style><linearGradient id="linear-gradient" x1="1210.88" y1="154.87" x2="1509.52" y2="154.87" gradientTransform="translate(-1205.33)" gradientUnits="userSpaceOnUse"><stop offset="0" stop-color="#c389f1"/><stop offset=".25" stop-color="#c389f1" stop-opacity=".6"/><stop offset=".77" stop-color="#c389f1" stop-opacity=".1"/><stop offset="1" stop-color="#c389f1" stop-opacity="0"/></linearGradient></defs><rect class="cls-2" x="5.54" y="5.54" width="298.65" height="298.65"/><path class="cls-3" d="m305.19,305.19H4.54V4.54h300.65v300.65Zm-298.65-2h296.65V6.54H6.54v296.65Z"/><rect class="cls-3" x="298.65" y="0" width="11.09" height="11.09" transform="translate(608.38 11.09) rotate(180)"/><rect class="cls-3" y="298.65" width="11.09" height="11.09" transform="translate(11.09 608.38) rotate(180)"/><rect class="cls-3" width="11.09" height="11.09" transform="translate(11.09 11.09) rotate(180)"/><rect class="cls-3" x="298.65" y="298.65" width="11.09" height="11.09" transform="translate(608.38 608.38) rotate(180)"/><path class="cls-1" d="m207.08,147.42c-.88,3.65-1.61,7.15-2.19,10.51-.54,3.1-.95,6.04-1.24,8.82-.23-1.06-.47-2.14-.73-3.24-1.17-4.89-2.78-10.26-4.82-16.1l-19.05-54.09h-36.14l-19.05,54.09c-2.05,5.99-3.5,11.43-4.38,16.31-.19,1.06-.36,2.09-.51,3.11-.33-2.04-.7-4.17-1.13-6.4-.8-4.16-1.79-8.5-2.96-13.03l-17.96-69.21h-47.3l43.58,153.3h39.42l26.78-74.8,30.16,74.8h37.23l44.02-153.3h-45.77l-17.96,69.21Z"/><polygon class="cls-1" points="331.47 172.44 392.58 172.44 392.58 136.53 331.47 136.53 331.47 117.04 400.68 117.04 400.68 78.71 286.14 78.71 286.14 232.01 404.62 232.01 404.62 193.69 331.47 193.69 331.47 172.44"/><path class="cls-1" d="m533.28,148.02c-5.04-3.87-10.92-7.08-17.63-9.64-6.72-2.55-14.09-4.56-22.12-6.02-1.75-.29-3.91-.69-6.46-1.21-2.56-.51-5.11-1.21-7.67-2.08-2.56-.88-4.67-1.93-6.35-3.18-1.68-1.24-2.52-2.81-2.52-4.71s.66-3.39,1.97-4.49c1.31-1.09,3.14-1.89,5.47-2.41,2.33-.51,5.18-.77,8.54-.77,3.65,0,7.34.47,11.06,1.42,3.72.95,7.34,2.41,10.84,4.38s6.86,4.49,10.07,7.55l27.59-26.5c-3.8-5.26-8.32-9.86-13.58-13.8-5.26-3.94-11.75-6.97-19.49-9.09-7.74-2.11-17.38-3.17-28.91-3.17-7.88,0-15.51,1.17-22.89,3.5-7.37,2.34-13.94,5.69-19.71,10.07-5.77,4.38-10.37,9.63-13.8,15.77-3.43,6.13-5.15,12.92-5.15,20.37,0,6.57,1.06,12.48,3.18,17.74,2.11,5.26,5.37,9.93,9.75,14.02,4.38,4.09,9.86,7.59,16.43,10.51,6.57,2.92,14.23,5.4,23,7.45,1.75.44,3.76.88,6.02,1.31,2.26.44,4.6.98,7.01,1.64,2.41.66,4.63,1.46,6.68,2.41,2.04.95,3.69,2.08,4.93,3.39,1.24,1.31,1.86,2.92,1.86,4.82,0,2.05-.58,3.65-1.75,4.82-1.17,1.17-2.85,2.01-5.04,2.52-2.19.51-4.67.77-7.45.77-7.01,0-14.49-1.5-22.45-4.49-7.96-2.99-15.59-9.16-22.89-18.51l-27.38,30.66c5.26,6.28,11.2,11.75,17.85,16.43,6.64,4.67,14.38,8.29,23.21,10.84,8.83,2.55,19.02,3.83,30.55,3.83s22.26-1.94,31.75-5.8c9.49-3.87,17.04-9.6,22.67-17.19,5.62-7.59,8.43-17.01,8.43-28.25,0-7.88-1.35-14.71-4.05-20.48-2.7-5.77-6.57-10.58-11.61-14.45Z"/><path class="cls-1" d="m673.66,148.02c-5.04-3.87-10.92-7.08-17.63-9.64-6.72-2.55-14.09-4.56-22.12-6.02-1.75-.29-3.91-.69-6.46-1.21-2.56-.51-5.11-1.21-7.67-2.08-2.56-.88-4.67-1.93-6.35-3.18-1.68-1.24-2.52-2.81-2.52-4.71s.66-3.39,1.97-4.49c1.31-1.09,3.14-1.89,5.47-2.41,2.33-.51,5.18-.77,8.54-.77,3.65,0,7.34.47,11.06,1.42,3.72.95,7.34,2.41,10.84,4.38s6.86,4.49,10.07,7.55l27.59-26.5c-3.8-5.26-8.32-9.86-13.58-13.8-5.26-3.94-11.75-6.97-19.49-9.09-7.74-2.11-17.38-3.17-28.91-3.17-7.88,0-15.51,1.17-22.89,3.5-7.37,2.34-13.94,5.69-19.71,10.07-5.77,4.38-10.37,9.63-13.8,15.77-3.43,6.13-5.15,12.92-5.15,20.37,0,6.57,1.06,12.48,3.18,17.74,2.11,5.26,5.37,9.93,9.75,14.02,4.38,4.09,9.86,7.59,16.43,10.51,6.57,2.92,14.23,5.4,23,7.45,1.75.44,3.76.88,6.02,1.31,2.26.44,4.6.98,7.01,1.64,2.41.66,4.63,1.46,6.68,2.41,2.04.95,3.69,2.08,4.93,3.39,1.24,1.31,1.86,2.92,1.86,4.82,0,2.05-.58,3.65-1.75,4.82-1.17,1.17-2.85,2.01-5.04,2.52-2.19.51-4.67.77-7.45.77-7.01,0-14.49-1.5-22.45-4.49-7.96-2.99-15.59-9.16-22.89-18.51l-27.38,30.66c5.26,6.28,11.2,11.75,17.85,16.43,6.64,4.67,14.38,8.29,23.21,10.84,8.83,2.55,19.02,3.83,30.55,3.83s22.26-1.94,31.75-5.8c9.49-3.87,17.04-9.6,22.67-17.19,5.62-7.59,8.43-17.01,8.43-28.25,0-7.88-1.35-14.71-4.05-20.48-2.7-5.77-6.57-10.58-11.61-14.45Z"/><polygon class="cls-1" points="758.52 172.44 819.62 172.44 819.62 136.53 758.52 136.53 758.52 117.04 827.73 117.04 827.73 78.71 713.19 78.71 713.19 232.01 831.67 232.01 831.67 193.69 758.52 193.69 758.52 172.44"/><polygon class="cls-1" points="906.79 78.71 859.48 78.71 859.48 232.01 972.49 232.01 972.49 191.71 906.79 191.71 906.79 78.71"/><path class="cls-1" d="m1204.19,96.89c-7.45-7.15-16.17-12.7-26.17-16.64-10-3.94-21.06-5.91-33.18-5.91s-23,1.97-33.07,5.91c-10.07,3.94-18.83,9.49-26.28,16.64-7.45,7.15-13.18,15.59-17.19,25.29-4.02,9.71-6.02,20.4-6.02,32.08s2.01,22.19,6.02,31.97c4.01,9.78,9.75,18.25,17.19,25.4,7.45,7.16,16.21,12.7,26.28,16.64,10.07,3.94,21.17,5.91,33.29,5.91s22.96-1.97,32.96-5.91c10-3.94,18.72-9.49,26.17-16.64,7.45-7.15,13.17-15.62,17.19-25.4,4.01-9.78,6.02-20.51,6.02-32.19s-2.01-22.15-6.02-31.86c-4.02-9.71-9.75-18.14-17.19-25.29Zm-27.48,71.83c-1.68,4.38-4.09,8.21-7.23,11.5-3.14,3.29-6.79,5.8-10.95,7.55-4.16,1.75-8.73,2.63-13.69,2.63s-9.53-.88-13.69-2.63-7.81-4.27-10.95-7.55c-3.14-3.29-5.55-7.12-7.23-11.5-1.68-4.38-2.52-9.2-2.52-14.45s.84-10.07,2.52-14.46c1.68-4.38,4.09-8.21,7.23-11.5,3.14-3.29,6.79-5.8,10.95-7.55s8.72-2.63,13.69-2.63,9.53.88,13.69,2.63c4.16,1.75,7.81,4.27,10.95,7.55,3.14,3.29,5.55,7.12,7.23,11.5,1.68,4.38,2.52,9.2,2.52,14.46s-.84,10.07-2.52,14.45Z"/><path class="cls-1" d="m1343.69,171.13c0,4.24-.95,7.99-2.85,11.28-1.9,3.29-4.46,5.88-7.67,7.78-3.21,1.9-6.94,2.85-11.17,2.85-3.94,0-7.48-.95-10.62-2.85-3.14-1.9-5.58-4.49-7.34-7.78s-2.63-7.04-2.63-11.28v-92.42h-47.74v94.39c0,11.68,2.92,22.05,8.76,31.1,5.84,9.05,13.91,16.17,24.2,21.35,10.29,5.19,22.08,7.78,35.37,7.78s25.08-2.59,35.37-7.78c10.29-5.18,18.36-12.3,24.2-21.35,5.84-9.05,8.76-19.42,8.76-31.1v-94.39h-46.65v92.42Z"/><path class="cls-1" d="m1549.77,100.28c-7.16-6.79-15.55-12.08-25.19-15.88-9.64-3.79-20.22-5.69-31.75-5.69h-67.45v153.3h67.45c11.53,0,22.12-1.89,31.75-5.69,9.64-3.79,18.03-9.09,25.19-15.88,7.15-6.79,12.66-14.89,16.53-24.31,3.87-9.42,5.8-19.67,5.8-30.77s-1.94-21.53-5.8-30.88c-3.87-9.34-9.38-17.41-16.53-24.2Zm-27.81,69.64c-1.61,4.46-3.87,8.29-6.79,11.5-2.92,3.21-6.35,5.73-10.29,7.55-3.94,1.83-8.32,2.74-13.14,2.74h-19.05v-72.71h19.05c4.82,0,9.2.91,13.14,2.74,3.94,1.83,7.37,4.35,10.29,7.56,2.92,3.21,5.18,7.04,6.79,11.5,1.61,4.46,2.41,9.31,2.41,14.56s-.8,10.11-2.41,14.56Z"/><path class="cls-3" d="m1622.92,196.31c-3.8-3.79-9.13-5.69-15.99-5.69-6.43,0-11.64,2.05-15.66,6.13-4.02,4.09-6.02,9.34-6.02,15.77,0,7.01,1.9,12.41,5.69,16.21,3.79,3.79,9.12,5.7,15.99,5.7,6.42,0,11.64-2.05,15.66-6.13,4.01-4.09,6.02-9.34,6.02-15.77,0-7.01-1.9-12.41-5.69-16.21Z"/></svg>